<?xml version="1.0" encoding="utf-8"?>
<svg viewBox="76.348 111.177 341.655 255.987" xmlns="http://www.w3.org/2000/svg">
  <g id="g8" transform="matrix(0.181801, 0, 0, -0.197745, 53.521042, 422.118439)" style="">
    <g id="g10" transform="scale(0.1)">
      <path d="M 0,0 H 36000 V 20000 H 0 Z" style="fill:transparent;fill-opacity:1;fill-rule:nonzero;stroke:none" id="path12"/>
      <path d="m 14425.7,9548 c 460.2,-3.8 920.6,31.6 1376,106 288.6,47.1 544.8,-183.6 516.5,-465.2 l -487.7,-2914.1 -1404.8,218.5 V 9548" style="fill:#4951ec;fill-opacity:1;fill-rule:nonzero;stroke:none" id="path614"/>
      <path d="m 12322.3,6739.7 3108.3,49.5 270.3,2399.6 c 26,281.6 -309.6,450.7 -472.4,465.2 -796,70.5 -1591.1,-141.7 -2378.6,-3 l -71.7,12.6 c -248.9,43.8 -475.2,-160.2 -473.3,-426.9 l 17.4,-2497" style="fill:#7c9af2;fill-opacity:1;fill-rule:nonzero;stroke:none" id="path616"/>
      <path d="m 11019.8,2980.3 979.9,3053.6 -195.4,81.9 -1012.8,-3135.6 228.3,0.1" style="fill:#3c8f7c;fill-opacity:1;fill-rule:nonzero;stroke:none" id="path618"/>
      <path d="m 16098.8,2980.2 -1068.7,3306.9 -195.3,-82 1001,-3224.9 h 263" style="fill:#4951ec;fill-opacity:1;fill-rule:nonzero;stroke:none" id="path620"/>
      <path d="m 15392.6,6885.7 -2778.4,-47.8 c -240.3,0 -455.1,-151.2 -455.1,-429.1 v -147.3 c 0,-277.9 194.8,-503.1 435.1,-503.1 h 2804.4 c 240.3,0 435.1,225.2 435.1,503.1 v 147.3 c 0,277.9 -200.8,476.9 -441.1,476.9" style="fill:#4951ec;fill-opacity:1;fill-rule:nonzero;stroke:none" id="path622"/>
      <path d="m 15448.3,2980.6 -1066.3,3178.7 -195.3,-78.9 1030.9,-3099.8 h 230.7" style="fill:#4951ec;fill-opacity:1;fill-rule:nonzero;stroke:none" id="path624"/>
      <path d="m 10575.8,2980 1014.5,3119.9 -195.4,81.2 L 10354,2980 h 221.8" style="fill:#4951ec;fill-opacity:1;fill-rule:nonzero;stroke:none" id="path626"/>
      <path d="m 14584.7,6871.9 -3210.8,85.5 c -285.5,0 -639,-303.1 -639,-571.5 v -142.3 c 0,-268.4 231.5,-485.9 517,-485.9 h 3332.8 c 285.6,0 517.1,217.5 517.1,485.9 v 142.3 c 0,268.4 -231.5,486 -517.1,486" style="fill:#7c9af2;fill-opacity:1;fill-rule:nonzero;stroke:none" id="path628"/>
      <path d="m 9474.53,6944.1 188.87,-3839.4 -156.53,-0.1 -511.29,3883.9 478.95,-44.4" style="fill:#0b0754;fill-opacity:1;fill-rule:nonzero;stroke:none" id="path630"/>
      <path d="m 9471.14,13652.9 8.22,228.8 -183.75,136.4 c -20.94,15.5 -14.97,48.3 10.1,55.5 l 220.07,62.8 72.99,217 c 8.31,24.7 41.35,29.1 55.89,7.5 l 127.79,-189.9 228.85,-2.3 c 26.1,-0.3 40.5,-30.3 24.5,-50.9 l -141.14,-180.2 68.47,-218.4 c 7.79,-24.8 -16.3,-47.9 -40.8,-38.9 l -214.99,78.5 -186.55,-132.6 c -21.24,-15.1 -50.58,0.7 -49.65,26.7" style="fill:#92b5f9;fill-opacity:1;fill-rule:nonzero;stroke:none" id="path632"/>
      <path d="m 5093.51,11961.1 265.52,7 116.84,279.5 362.05,-44.5 52.7,194.6 79.86,-24.8 -69.14,-255.4 -370.8,45.6 -113.12,-270.6 -321.51,-8.4 -2.4,77" style="fill:#fa7167;fill-opacity:1;fill-rule:nonzero;stroke:none" id="path634"/>
      <path d="m 14830.9,13830.1 -104.4,-198.1 -337.2,132.8 -188.3,-270.8 -268.6,58.1 -29.4,-136 359.2,-77.7 178.5,256.6 350.8,-138.1 157.1,298.1 -117.7,75.1" style="fill:#7c9af2;fill-opacity:1;fill-rule:nonzero;stroke:none" id="path636"/>
      <path d="m 7329.31,15375.5 68.94,-195.3 210.22,-20.3 61.77,-224.4 230.59,47.4 81.04,-250.7 217.71,17.4 117.42,-228.4 -86.45,-44.4 -87.8,170.8 -229.73,-18.4 -77.92,240.9 -234.44,-48.2 -68.17,247.7 -205.29,19.8 -63.9,181 -137.54,-15.1 -10.65,96.6 214.2,23.6" style="fill:#7c9af2;fill-opacity:1;fill-rule:nonzero;stroke:none" id="path638"/>
      <path d="m 19556.4,3037.4 c 0,37.2 -30.2,67.4 -67.3,67.4 H 1582.5 c -38.07,0 -68.92,-30.2 -68.92,-67.4 0,-37.2 30.85,-67.3 68.92,-67.3 h 17906.6 c 37.1,0 67.3,30.1 67.3,67.3" style="fill:#4951ec;fill-opacity:1;fill-rule:nonzero;stroke:none" id="path640"/>
      <path d="m 11332.4,10031.2 c 0,0 -202.7,-1127.2 -402.2,-1243.4 -199.5,-116.2 -1276.37,-636.6 -1276.37,-636.6 l -524.09,-102 -167.13,-121.2 c 0,0 297.97,-166.5 411.02,-164.9 124.71,1.8 243.31,98.9 443.04,144.3 516.13,117.5 1456.23,290.7 1563.63,398.1 149.1,149 585.9,1313.6 585.9,1313.6 l -633.8,412.1" style="fill:#ef7f7f;fill-opacity:1;fill-rule:nonzero;stroke:none" id="path642"/>
      <path d="m 8922.3,9984.1 -274.49,-775.3 c 0,0 -242.18,503.6 -394.87,1083.5 -240.22,-85.7 -395.69,-182.4 -585.41,-347.4 221.75,-538.7 639.8,-1420.9 969.96,-1469.4 256.92,-37.8 519.08,1225 519.08,1225 l -234.27,283.6" style="fill:#fb9390;fill-opacity:1;fill-rule:nonzero;stroke:none" id="path644"/>
      <path d="m 9051.34,10432.4 c 32.07,33.6 110.03,70.3 149.4,34.5 39.35,-35.8 23.34,-94.2 45.54,-123.2 19.9,-26 42.4,-71.4 55.65,-113.1 3.72,-11.7 29.7,-100.3 37.47,-125.6 7.79,-25.2 -182.83,-404.5 -182.83,-404.5 l -277.91,142.2 c 0,0 140.61,556 172.68,589.7" style="fill:#fb9390;fill-opacity:1;fill-rule:nonzero;stroke:none" id="path646"/>
      <path d="m 8154.62,10581.8 c 0,0 197.38,-523.3 247.88,-688.6 50.5,-165.2 151.49,-403.9 151.49,-403.9 l -546.28,-353.5 -385.62,817.1 532.53,628.9" style="fill:#e8605d;fill-opacity:1;fill-rule:nonzero;stroke:none" id="path648"/>
      <path d="m 9088.91,10369.1 v -16.1 c 0,-43.5 -6.25,-86.8 -17.66,-128.8 -13.1,-48.2 -25.26,-113.3 -3.52,-135 36.07,-36.1 62.01,45.4 62.01,45.4 0,0 -66.79,-71.8 -51.45,-103.4 20.09,-41.5 78.28,0 78.28,0 0,0 -39.37,-54.6 0,-69.6 39.37,-15 119.12,119.9 119.12,119.9 l 46.56,67 -192.34,232.9 -41,-12.3" style="fill:#ef7f7f;fill-opacity:1;fill-rule:nonzero;stroke:none" id="path650"/>
      <path d="m 9292.89,10062.9 114.45,3 -29.54,107.9 -88.6,-3 c -41.89,-1.5 -77.61,45.8 -79.65,105.3 l -3.68,107.9 c -2.04,59.5 30.37,109.1 72.25,110.5 l 113.92,3.9 -3.7,107.9 -113.91,-3.9 c -83.77,-2.9 -148.59,-102 -144.52,-221 l 3.7,-107.9 c 4.06,-119 75.52,-213.5 159.28,-210.6" style="fill:#bed1f9;fill-opacity:1;fill-rule:nonzero;stroke:none" id="path652"/>
      <path d="m 9947.84,10619.9 16.92,-494 c 3.87,-113.5 -84.97,-208.7 -198.47,-212.5 l -176.09,-6.1 c -113.5,-3.8 -208.64,85 -212.53,198.5 l -19.04,556.7 587.07,20.1 2.14,-62.7" style="fill:#bed1f9;fill-opacity:1;fill-rule:nonzero;stroke:none" id="path654"/>
      <path d="m 9213.17,10435.3 c 0,0 -164.93,-251.2 -143.52,-295 21.4,-43.8 191.23,181.6 191.23,181.6 0,0 -4.8,122.6 -47.71,113.4" style="fill:#fb9390;fill-opacity:1;fill-rule:nonzero;stroke:none" id="path656"/>
      <path d="m 9309.36,10256.8 c 0,0 -171.47,-234.2 -200.22,-213.8 -45.39,32.1 143.68,291.6 143.68,291.6 0,0 56.54,9.9 56.54,-77.8" style="fill:#fb9390;fill-opacity:1;fill-rule:nonzero;stroke:none" id="path658"/>
      <path d="m 9339.64,10172.5 c 0,0 -146.68,-193.2 -183.07,-156.8 -36.38,36.4 154.97,244.1 154.97,244.1 0,0 50.34,-50.2 28.1,-87.3" style="fill:#fb9390;fill-opacity:1;fill-rule:nonzero;stroke:none" id="path660"/>
      <path d="m 8952.06,10121.5 c 0,0 -11.92,200.8 10.55,223.3 22.47,22.5 178.9,113.8 201.7,91 22.79,-22.8 -133.19,-176 -133.19,-176 l -79.06,-138.3" style="fill:#fb9390;fill-opacity:1;fill-rule:nonzero;stroke:none" id="path662"/>
      <path d="M 6055.17,3104.8 7155.57,6165.4 7363.96,6087 6293.02,3104.8 h -237.85" style="fill:#4951ec;fill-opacity:1;fill-rule:nonzero;stroke:none" id="path664"/>
      <path d="M 9431.87,6668.7 H 6441.05 c -256.25,0 -463.98,-207.7 -463.98,-464 v -135.9 c 0,-256.2 207.73,-463.9 463.98,-463.9 h 2990.82 c 256.25,0 463.97,207.7 463.97,463.9 v 135.9 c 0,256.3 -207.72,464 -463.97,464" style="fill:#3c8f7c;fill-opacity:1;fill-rule:nonzero;stroke:none" id="path666"/>
      <path d="M 4322.71,3119.9 5423.58,6182.3 5631.96,6104 4558.87,3120 4322.71,3119.9" style="fill:#3c8f7c;fill-opacity:1;fill-rule:nonzero;stroke:none" id="path668"/>
      <path d="m 8752.49,3104.7 -1075.8,2936.7 208.37,78.5 1113.89,-3015.1 -246.46,-0.1" style="fill:#4951ec;fill-opacity:1;fill-rule:nonzero;stroke:none" id="path670"/>
      <path d="M 7117.71,6579.9 H 6704.56 L 5626.55,9548.4 c -42.19,111.9 -147.1,186.2 -264.64,187.4 l -1292.37,18.5 c -198.97,2 -385.61,-282.3 -275.44,-647.3 l 824.86,-2435.8 h -0.43 l 227.45,-730.5 2422.77,-25.5 -151.04,664.7" style="fill:#7c9af2;fill-opacity:1;fill-rule:nonzero;stroke:none" id="path672"/>
      <path d="m 7567.6,6552.3 -2102.51,4.6 -970.68,2803.4 c -66.3,191.3 74.06,391.7 273.04,389.7 l 1402.05,-14.2 c 117.54,-1.2 222.45,-75.5 264.62,-187.4 L 7567.6,6552.3" style="fill:#4951ec;fill-opacity:1;fill-rule:nonzero;stroke:none" id="path674"/>
      <path d="m 8549.84,6668 c 0,0 -1425.97,-282.2 -1816.73,-219.3 -500.06,80.5 -1306.73,220 -1306.73,220 -276.1,0 -599.01,-208.4 -599.01,-464.7 v -135.9 c 0,-256.2 223.83,-463.9 499.93,-463.9 h 3222.54 c 276.11,0 499.94,207.7 499.94,463.9 V 6204 c 0,256.3 -223.83,464 -499.94,464" style="fill:#7c9af2;fill-opacity:1;fill-rule:nonzero;stroke:none" id="path676"/>
      <path d="m 8849.95,4298.4 c 58.09,-261.8 80.92,-747.7 69.04,-804.3 -3.45,-16.3 14.09,-83.1 22.96,-98.1 339.28,-186.7 679.75,-107.1 956.67,-3.4 -191.47,66.2 -445.33,151.8 -483.69,176.5 -99.97,64.4 -50.35,395 -33.75,813.9 -136.08,-150 -338.27,-17.9 -531.23,-84.6" style="fill:#fb9390;fill-opacity:1;fill-rule:nonzero;stroke:none" id="path678"/>
      <path d="m 8919.63,3499.3 c -49.88,-126.1 -38.28,-390.7 -12.14,-394.6 31.26,-4.7 1156.81,-49.9 1310.81,61.6 95,68.8 -84.4,139.8 -319.68,226.3 -276.92,-103.7 -962.64,22 -978.99,106.7" style="fill:#0b0754;fill-opacity:1;fill-rule:nonzero;stroke:none" id="path680"/>
      <path d="m 7264.27,7926.2 24.89,-332.3 c 0,0 2323.55,-323.4 2360.88,-749.3 37.37,-425.9 -213.75,-3020.7 -213.75,-3020.7 l -569.6,-36.2 c 0,0 -294.33,1404.7 -266.79,1891.3 25.03,442.3 123.68,682.9 123.68,682.9 0,0 -2498.17,118.3 -2657.03,190.4 -158.86,72.2 -271.89,271 -113.15,905.3 158.72,634.3 242.77,797.4 242.77,797.4 l 1068.1,-328.8" style="fill:#92b5f9;fill-opacity:1;fill-rule:nonzero;stroke:none" id="path682"/>
      <path d="m 8752.06,11456.6 c 54.8,229 108.44,459.3 -35.97,710.8 -116.88,203.6 -318.92,320.7 -552.74,346.2 -662.55,72.3 -520.95,-496.3 -1446.95,-619.4 -287.74,-38.3 -555.05,-75 -795.28,-206.6 -433.81,-237.6 -451.75,-919.7 -309.86,-1239.4 678.9,-1529.9 2433.53,-229.7 2647.12,69.7 158.87,222.6 458.43,791.4 493.68,938.7" style="fill:#0b0754;fill-opacity:1;fill-rule:nonzero;stroke:none" id="path684"/>
      <path d="m 8287.73,10113.6 c -20.97,197.9 -133.11,472.8 -133.11,472.8 -24.32,199.3 -665.16,267 -830.91,234.1 C 6736,10635.3 6302.38,8989.4 6050.39,7974.6 l 1225.12,-194.2 c 0,0 411.18,1337.2 810.01,1533.8 277.76,136.9 233.34,505.8 202.21,799.4" style="fill:#fa7167;fill-opacity:1;fill-rule:nonzero;stroke:none" id="path686"/>
      <path d="m 7877.69,11354.1 c 0,0 -2.63,-13.7 -7.33,-36.9 -22.55,-111.6 -92.99,-443.8 -151.65,-545.6 -70.89,-122.9 160.26,-676.3 462.12,-628.4 89.85,14.2 -51.04,297.4 -20.67,434.5 17.15,77.6 69.22,319 111.25,514.2 32.27,149.9 58.61,272.6 58.61,272.6 l -452.33,-10.4" style="fill:#fb9390;fill-opacity:1;fill-rule:nonzero;stroke:none" id="path688"/>
      <path d="m 7870.36,11317.2 c 4.7,23.2 7.33,36.9 7.33,36.9 l 452.33,10.4 c 0,0 -26.34,-122.7 -58.61,-272.6 -11.31,-52.5 -23.33,-108.3 -35.2,-163.4 -69.84,9.4 -142.8,40.6 -215.98,99.3 -79.77,64.1 -132.04,141.1 -163.59,223.3 5.58,26.2 10.23,48.8 13.72,66.1" style="fill:#ef7f7f;fill-opacity:1;fill-rule:nonzero;stroke:none" id="path690"/>
      <path d="m 8149.77,12342.4 c 0,0 -184.47,-23.5 -318.1,-182.1 -133.64,-158.5 -277.7,-648.9 54.3,-915.6 331.98,-266.6 660,35.2 708.63,355.2 48.64,320 38.81,754.1 -444.83,742.5" style="fill:#fb9390;fill-opacity:1;fill-rule:nonzero;stroke:none" id="path692"/>
      <path d="m 8700.86,11709.2 c -39.64,-70.6 -106.15,-109.8 -148.57,-87.4 -42.42,22.4 -44.69,97.9 -5.06,168.6 39.61,70.6 106.13,109.8 148.56,87.4 42.42,-22.4 44.69,-97.9 5.07,-168.6" style="fill:#fb9390;fill-opacity:1;fill-rule:nonzero;stroke:none" id="path694"/>
      <path d="m 8205.98,12349.9 c 0,0 -284.85,-466.4 -488.61,-488 -203.76,-21.5 -230.51,-269.3 -230.51,-269.3 0,0 72.84,571 274.58,681.1 201.72,110.1 444.54,76.2 444.54,76.2" style="fill:#0b0754;fill-opacity:1;fill-rule:nonzero;stroke:none" id="path696"/>
      <path d="m 7784,11750.8 c 16.58,-82.8 -16.75,-158.7 -74.42,-169.6 -57.7,-10.9 -117.89,47.5 -134.46,130.3 -16.58,82.8 16.76,158.7 74.44,169.6 57.69,10.9 117.88,-47.4 134.44,-130.3" style="fill:#fb9390;fill-opacity:1;fill-rule:nonzero;stroke:none" id="path698"/>
      <path d="m 7602.7,10141 c -65.36,-609.6 69.9,-1468.9 69.9,-1468.9 l 1253.23,-408.5 c 0,0 213.96,84.6 282.31,57.6 68.36,-27.1 218.5,-69.6 195.12,-108.1 -23.38,-38.6 -150.75,33.2 -183.85,19.7 -33.11,-13.4 88.44,-125.5 139.49,-156.4 51.04,-31 428.61,32.3 485.11,26.8 30.45,-3 -0.41,-25.8 -47.2,-46.6 54.3,11.6 109.77,17.8 129.53,1.4 43.16,-35.7 -221.42,-110.1 -221.42,-110.1 0,0 349.28,66.1 191.08,-5.7 0,0 -367.87,-184.5 -575.38,-82.6 -207.5,101.9 -264.63,114.1 -334.27,143.2 -20.27,8.4 -1574.67,82.4 -1685.6,182.7 -263.67,238.6 -376.64,1277.6 -393.42,1877.8 244.64,74.4 430.96,99.3 695.37,77.7" style="fill:#fb9390;fill-opacity:1;fill-rule:nonzero;stroke:none" id="path700"/>
      <path d="m 7716.21,10336.2 c -9.35,176.6 -50.01,403.8 -238.71,466 -116.95,38.5 -252.01,17.1 -346.6,-55.1 -112.53,-85.9 -243.14,-260.3 -258.28,-403.3 -32.73,-309.3 -23.63,-596 30.37,-904.5 214.05,108.6 515.29,40.5 760.43,63.7 -0.09,1.9 65.14,599.8 52.79,833.2" style="fill:#e8605d;fill-opacity:1;fill-rule:nonzero;stroke:none" id="path702"/>
      <path d="m 9959.75,4757 c 198.45,-234.2 342.35,-478.1 358.05,-508.2 7.6,-14.5 10.5,-98 18,-113.2 308.8,-203.2 636,-146.9 904.6,-63.1 -176.8,76.5 -423,165.2 -446.1,202.2 -36.7,58.9 -205.2,272.8 -378.8,657 -138.4,-137.7 -268.9,-121.8 -455.75,-174.7" style="fill:#fb9390;fill-opacity:1;fill-rule:nonzero;stroke:none" id="path704"/>
      <path d="m 10321,4237.6 c -27,-123.3 -16.1,-421.8 8.3,-427.3 29.3,-6.6 1066.2,-111.6 1198.9,21.6 79.9,80 -70.8,141.6 -287.8,240.6 -268.6,-83.8 -909.4,81.5 -919.4,165.1" style="fill:#0b0754;fill-opacity:1;fill-rule:nonzero;stroke:none" id="path706"/>
      <path d="M 10542.8,4780.8 10122,4532.1 c 0,0 -1149.79,1727.7 -1240.37,2125.6 -82.64,363 -402.8,526.7 -402.8,526.7 l -1188.41,407.8 c 0,0 1953.37,77.2 2210.91,-77.3 327.18,-196.3 1041.47,-2734.1 1041.47,-2734.1" style="fill:#7c9af2;fill-opacity:1;fill-rule:nonzero;stroke:none" id="path708"/>
      <path d="m 3344.63,3104.6 1081.88,3068.7 -208.39,79.9 -1110.05,-3148.6 h 236.56" style="fill:#3c8f7c;fill-opacity:1;fill-rule:nonzero;stroke:none" id="path710"/>
      <path d="m 12544.2,14425.8 c 0,0 86.8,72.5 215,40.8 114.3,-28.3 170.6,-138.7 144.4,-244.5 -30.3,-122.5 -173.5,-240.8 -483.5,-297.8 -247.7,194.9 -319.2,366.4 -288.9,488.9 26.2,105.9 127.5,177.2 241.8,148.9 128.2,-31.7 171.2,-136.3 171.2,-136.3" style="fill:#fa7167;fill-opacity:1;fill-rule:nonzero;stroke:none" id="path712"/>
      <path d="m 11587.1,14611.4 c 106.6,-45.6 194.6,-76.7 282.5,-103.3 29,-8.7 76.7,-32.5 104.3,-13.7 14.3,9.8 20.7,25 13,41.7 -14.1,30.6 -60.6,34.3 -89.8,43.1 -89,26.9 -188.5,61.6 -287,102.5 -18.5,7.7 -40.8,-5.7 -46.7,-23.7 -6.7,-20.4 5.3,-38.8 23.7,-46.6" style="fill:#fa7167;fill-opacity:1;fill-rule:nonzero;stroke:none" id="path714"/>
      <path d="m 13004.2,13932.7 c 42.3,-13.6 85,-26.4 127.6,-39.4 40.7,-12.3 86.7,-34.1 129.5,-31.9 31.5,1.6 45.7,38.6 19,58.5 -34.6,25.6 -84.2,33 -125.1,45.3 -42.6,12.8 -85.2,25.7 -128,37.9 -45.8,13 -68.6,-55.8 -23,-70.4" style="fill:#fa7167;fill-opacity:1;fill-rule:nonzero;stroke:none" id="path716"/>
      <path d="m 11810,13934.3 c 80.8,73.4 154.3,81.1 214.5,100.3 32.2,10.3 29.5,54.1 -4.6,58.9 -93.5,13.2 -193.7,-43.6 -259.7,-104.8 -34.8,-32.3 14.6,-86.4 49.8,-54.4" style="fill:#fa7167;fill-opacity:1;fill-rule:nonzero;stroke:none" id="path718"/>
      <path d="m 12232,13559.7 c 11.8,44.5 31.6,85.4 60.3,121.4 17.6,22.1 89.7,76.6 43.8,105 -43.3,26.8 -92.3,-42.8 -113.6,-72.1 -28.4,-39.2 -49.2,-84.3 -61.1,-131.2 -11.8,-46.2 58.3,-69.5 70.6,-23.1" style="fill:#fa7167;fill-opacity:1;fill-rule:nonzero;stroke:none" id="path720"/>
      <path d="m 12674.9,13717.1 c 18.4,-24.4 36.8,-48.9 55.1,-73.3 18.4,-24.4 33.4,-56.2 66.5,-59.4 18.6,-1.8 30.8,13.7 33.7,30.1 5.1,29.9 -27.4,58.4 -44.3,80.6 -18.5,24.3 -37,48.6 -55.6,72.8 -12.3,16.2 -39.1,15.2 -53.1,2.3 -16.2,-14.8 -14.6,-36.8 -2.3,-53.1" style="fill:#fa7167;fill-opacity:1;fill-rule:nonzero;stroke:none" id="path722"/>
      <path d="m 12331.5,14776.3 c -23.8,245.1 -21.7,245.7 -34.4,269.2 -13.1,24 -51.1,22.1 -59.6,-5 -8.3,-26.8 -6.4,-22.5 19.5,-280.3 2.1,-20.5 26.8,-33.1 45.3,-29.1 22.1,4.7 31.2,24.7 29.2,45.2" style="fill:#fa7167;fill-opacity:1;fill-rule:nonzero;stroke:none" id="path724"/>
      <path d="m 12720.4,14659.8 c 25.2,31.7 46.7,65.8 64.6,102.2 16.7,33.9 46.8,83.5 21.3,118.4 -5.5,7.5 -18.8,11.5 -27.6,8.8 -36.5,-11.3 -45,-61.6 -60.5,-92.8 -16.9,-34 -37.4,-66.1 -59.8,-96.7 -11.8,-16.1 -5,-40.7 11,-51 18.1,-11.6 38.5,-4.6 51,11.1" style="fill:#fa7167;fill-opacity:1;fill-rule:nonzero;stroke:none" id="path726"/>
      <path d="m 13257.3,14456.2 c 11.4,14.6 2.9,34.3 -9.6,44.3 -25.7,20.6 -72.9,4 -102,-3 -33.9,-8.1 -66.7,-19.6 -98.8,-33 -18.5,-7.8 -24.5,-33.5 -15.7,-50.2 10.2,-19.6 31.3,-22.8 50.2,-15.7 123.1,46.5 147.7,21.5 175.9,57.6" style="fill:#fa7167;fill-opacity:1;fill-rule:nonzero;stroke:none" id="path728"/>
      <path d="m 15369.5,9074.3 c -2.5,42.8 -38,76.3 -81,76.3 h -524.4 c -43,0 -78.5,-33.5 -81,-76.3 l -0.9,-14.2 h 688.1 l -0.8,14.2" style="fill:#dde8fe;fill-opacity:1;fill-rule:nonzero;stroke:none" id="path730"/>
      <path d="M 14682.2,9060.1 14597,7614.7 h 858.6 l -85.3,1445.4 h -688.1" style="fill:#bed1f9;fill-opacity:1;fill-rule:nonzero;stroke:none" id="path732"/>
      <path d="m 15067.1,9386.2 c 1.9,15.1 -9.9,28.4 -25.1,28.4 h -31.4 c -15.2,0 -27,-13.3 -25.1,-28.4 l 0.1,-1.3 h 81.4 l 0.1,1.3" style="fill:#bed1f9;fill-opacity:1;fill-rule:nonzero;stroke:none" id="path734"/>
      <path d="m 15411.4,8049.2 -57.9,35.5 c 199.1,324.1 446.1,824 372,920.4 -98.7,128.5 -361.8,-58.5 -364.5,-60.4 l -40.1,54.7 c 13,9.5 318.2,229.7 458.5,47 129.3,-168.3 -283.9,-860.2 -368,-997.2" style="fill:#bed1f9;fill-opacity:1;fill-rule:nonzero;stroke:none" id="path736"/>
      <path d="m 14985.6,9384.9 19,-153.2 h 43.4 l 19,153.2 h -81.4" style="fill:#bed1f9;fill-opacity:1;fill-rule:nonzero;stroke:none" id="path738"/>
      <path d="m 15026.3,9312.8 c -137.2,0 -248.5,-72.3 -251.7,-162.2 h 503.4 c -3.2,89.9 -114.5,162.2 -251.7,162.2" style="fill:#bed1f9;fill-opacity:1;fill-rule:nonzero;stroke:none" id="path740"/>
      <path d="m 14665.8,8781.2 -22.2,-376.4 -244.3,548.8 h 129.3 l 137.2,-172.4" style="fill:#bed1f9;fill-opacity:1;fill-rule:nonzero;stroke:none" id="path742"/>
      <path d="m 6115,12934.6 c -7.33,0 -14.58,3.2 -19.43,9.5 -8.33,10.7 -6.39,26.1 4.33,34.5 l 352.76,274.1 c 10.7,8.4 26.16,6.4 34.49,-4.3 8.34,-10.7 6.4,-26.2 -4.32,-34.5 l -352.76,-274.2 c -4.48,-3.4 -9.8,-5.1 -15.07,-5.1" style="fill:#bed1f9;fill-opacity:1;fill-rule:nonzero;stroke:none" id="path744"/>
      <path d="m 6672.14,13650.1 c 0,0 12.48,132 142.36,204.6 115.79,64.7 250.25,11.6 313.89,-102.2 73.66,-131.7 52.04,-348.4 -154.6,-641.8 -358.17,-22.4 -554.11,72.6 -627.77,204.3 -63.65,113.8 -38.5,256.2 77.29,320.9 129.87,72.6 248.83,14.2 248.83,14.2" style="fill:#fa7167;fill-opacity:1;fill-rule:nonzero;stroke:none" id="path746"/>
      <path d="m 6933.17,13570.5 c -7.34,0 -14.58,3.3 -19.42,9.5 -8.33,10.7 -6.41,26.2 4.33,34.5 l 625.44,486.1 c 10.71,8.3 26.17,6.4 34.49,-4.3 8.34,-10.7 6.41,-26.2 -4.31,-34.5 l -625.45,-486.1 c -4.48,-3.5 -9.8,-5.2 -15.08,-5.2" style="fill:#bed1f9;fill-opacity:1;fill-rule:nonzero;stroke:none" id="path748"/>
      <path d="m 7505.64,14030.1 -1.67,0.1 c -11.27,0.9 -19.68,10.8 -18.76,22.1 l 8.19,101.1 c 0.92,11.3 10.8,19.6 22.09,18.7 11.26,-0.9 19.67,-10.8 18.75,-22 l -8.2,-101.1 c -0.87,-10.7 -9.83,-18.9 -20.4,-18.9" style="fill:#bed1f9;fill-opacity:1;fill-rule:nonzero;stroke:none" id="path750"/>
      <path d="m 7625,14005.6 -2.38,0.1 -117.48,13.6 c -11.25,1.4 -19.3,11.5 -17.99,22.8 1.31,11.2 11.55,19.2 22.72,18 l 117.47,-13.7 c 11.25,-1.3 19.3,-11.5 17.99,-22.7 -1.21,-10.5 -10.07,-18.1 -20.33,-18.1" style="fill:#bed1f9;fill-opacity:1;fill-rule:nonzero;stroke:none" id="path752"/>
      <path d="m 7538.4,13923.6 c -2.68,0 -5.4,0.5 -8.01,1.6 l -122.09,51.9 3.07,123.2 c 0.27,11.3 9.53,20.1 21,20 11.31,-0.3 20.25,-9.7 19.96,-21 l -2.37,-95.4 96.46,-41 c 10.42,-4.4 15.28,-16.4 10.86,-26.8 -3.32,-7.8 -10.91,-12.5 -18.88,-12.5" style="fill:#bed1f9;fill-opacity:1;fill-rule:nonzero;stroke:none" id="path754"/>
      <path d="m 7426.41,13866.2 c -1.92,0 -3.87,0.3 -5.79,0.8 l -108.82,32.1 9.47,123.1 c 0.87,11.2 10.63,19.6 22.01,18.8 11.27,-0.9 19.72,-10.7 18.84,-22 l -6.91,-90 76.97,-22.6 c 10.86,-3.2 17.07,-14.6 13.87,-25.5 -2.63,-8.9 -10.79,-14.7 -19.64,-14.7" style="fill:#bed1f9;fill-opacity:1;fill-rule:nonzero;stroke:none" id="path756"/>
      <path d="m 6188.76,13203 -127.04,-309.4 313.5,94.2 -133.18,75.9 -53.28,139.3" style="fill:#bed1f9;fill-opacity:1;fill-rule:nonzero;stroke:none" id="path758"/>
      <path d="m 10216.2,14760.6 -190.4,226.1 110.1,152.3 -171.03,218.4 130.13,230 87.5,-49.5 -97,-171.4 176.2,-225.1 -108.5,-150 139.8,-166.1 -76.8,-64.7" style="fill:#fa7167;fill-opacity:1;fill-rule:nonzero;stroke:none" id="path760"/>
      <path d="m 2193.69,6251.9 c -4.85,-41.5 24.8,-79 66.24,-83.9 41.42,-4.8 78.94,24.8 83.78,66.3 4.85,41.4 -24.81,79 -66.24,83.8 -41.43,4.9 -78.93,-24.8 -83.78,-66.2" style="fill:#fa7167;fill-opacity:1;fill-rule:nonzero;stroke:none" id="path762"/>
      <path d="m 2306.04,6201.6 c -28.21,-43.1 -95.34,-18.5 -89.39,32.4 3.1,26.5 26.98,46.1 54.18,42.9 36.26,-4.3 54.83,-45.3 35.21,-75.3" style="fill:#fa7167;fill-opacity:1;fill-rule:nonzero;stroke:none" id="path764"/>
      <path d="m 1815.11,6137.8 c 26.91,-31.9 22.89,-79.5 -8.98,-106.5 -31.85,-26.9 -79.51,-22.9 -106.43,9 -26.91,31.9 -22.89,79.6 8.97,106.5 31.87,26.9 79.51,22.9 106.44,-9" style="fill:#fa7167;fill-opacity:1;fill-rule:nonzero;stroke:none" id="path766"/>
      <path d="m 1799.98,6041.4 c -20.57,-17.4 -51.44,-14.8 -68.81,5.8 -13.84,16.4 -15.31,40.4 -3.58,58.3 2.58,3.9 5.74,7.5 9.37,10.5 9.97,8.5 22.62,12.5 35.62,11.4 43.32,-3.6 60.31,-58.2 27.4,-86" style="fill:#fa7167;fill-opacity:1;fill-rule:nonzero;stroke:none" id="path768"/>
      <path d="m 2155.7,6254 c 0.13,-41.7 -33.58,-75.7 -75.29,-75.8 -41.71,-0.1 -75.63,33.6 -75.77,75.3 -0.13,41.7 33.57,75.7 75.29,75.8 41.71,0.2 75.64,-33.6 75.77,-75.3" style="fill:#fa7167;fill-opacity:1;fill-rule:nonzero;stroke:none" id="path770"/>
      <path d="m 2082.17,6189.9 c -39.01,-0.2 -62.12,43.4 -41.05,75.6 26.78,40.8 89.58,21 89.72,-26.6 0.09,-26.9 -21.57,-48.9 -48.67,-49" style="fill:#fa7167;fill-opacity:1;fill-rule:nonzero;stroke:none" id="path772"/>
      <path d="m 2491.25,6124 c -26.7,-32.1 -74.32,-36.4 -106.37,-9.7 -32.04,26.7 -36.36,74.4 -9.66,106.5 26.7,32 74.33,36.4 106.38,9.6 32.03,-26.7 36.37,-74.4 9.65,-106.4" style="fill:#fa7167;fill-opacity:1;fill-rule:nonzero;stroke:none" id="path774"/>
      <path d="m 2462.51,6128.4 c -17.25,-20.7 -48.1,-23.5 -68.78,-6.3 -20.57,17.2 -23.7,47.9 -6.24,68.8 17.24,20.7 48.09,23.5 68.77,6.3 20.58,-17.1 23.69,-47.8 6.25,-68.8" style="fill:#fa7167;fill-opacity:1;fill-rule:nonzero;stroke:none" id="path776"/>
      <path d="m 1920.07,5252 c 18.71,37.3 3.68,82.7 -33.61,101.4 -37.26,18.7 -82.66,3.7 -101.38,-33.6 -18.71,-37.3 -3.67,-82.7 33.6,-101.5 37.27,-18.7 82.67,-3.6 101.39,33.7" style="fill:#fa7167;fill-opacity:1;fill-rule:nonzero;stroke:none" id="path778"/>
      <path d="m 1901.72,5271.6 c -13.57,-20.7 -40.53,-27.9 -62.72,-16.8 -25.89,13 -35,45.9 -18.87,70.5 13.55,20.8 40.51,28 62.7,16.8 26.07,-13 34.97,-45.9 18.89,-70.5 v 0" style="fill:#fa7167;fill-opacity:1;fill-rule:nonzero;stroke:none" id="path780"/>
      <path d="m 1666.98,5507.9 c 38.3,16.5 55.95,61 39.43,99.3 -16.53,38.3 -60.97,56 -99.27,39.4 -38.3,-16.5 -55.95,-61 -39.43,-99.3 16.53,-38.3 60.97,-55.9 99.27,-39.4" style="fill:#fa7167;fill-opacity:1;fill-rule:nonzero;stroke:none" id="path782"/>
      <path d="m 1692.38,5554.7 c -21.12,-32.2 -70.2,-28.3 -85.65,7.5 -10.69,24.8 0.72,53.5 25.49,64.2 44.31,19.2 86.64,-31.2 60.16,-71.7" style="fill:#fa7167;fill-opacity:1;fill-rule:nonzero;stroke:none" id="path784"/>
      <path d="m 1637.52,5866.7 c 39.96,-12 82.04,10.7 94.01,50.7 11.96,40 -10.74,82.1 -50.7,94.1 -39.97,11.9 -82.05,-10.8 -94.01,-50.8 -11.97,-39.9 10.74,-82 50.7,-94" style="fill:#fa7167;fill-opacity:1;fill-rule:nonzero;stroke:none" id="path786"/>
      <path d="m 1630.07,5909.9 c -6.2,11.4 -7.55,24.7 -3.81,37.1 12.46,41.7 69.2,47.4 89.76,9.2 6.2,-11.4 7.53,-24.7 3.81,-37.2 -12.44,-41.5 -69.19,-47.3 -89.76,-9.1" style="fill:#fa7167;fill-opacity:1;fill-rule:nonzero;stroke:none" id="path788"/>
      <path d="m 1684.12,5473.9 c 36.05,21 82.28,8.8 103.26,-27.3 20.99,-36.1 8.77,-82.3 -27.28,-103.3 -36.06,-21 -82.3,-8.8 -103.27,27.3 -20.98,36 -8.76,82.3 27.29,103.3" style="fill:#fa7167;fill-opacity:1;fill-rule:nonzero;stroke:none" id="path790"/>
      <path d="m 1721.7,5370.5 c -41.75,11 -49.7,67.5 -12.08,89.4 23.27,13.6 53.22,5.7 66.77,-17.6 21.94,-37.7 -13,-82.8 -54.69,-71.8" style="fill:#fa7167;fill-opacity:1;fill-rule:nonzero;stroke:none" id="path792"/>
      <path d="m 1845.47,6160.5 c 22.92,-34.9 69.75,-44.5 104.61,-21.6 34.83,23 44.51,69.8 21.58,104.7 -22.92,34.9 -69.77,44.5 -104.61,21.6 -34.85,-23 -44.52,-69.8 -21.58,-104.7" style="fill:#fa7167;fill-opacity:1;fill-rule:nonzero;stroke:none" id="path794"/>
      <path d="m 1942.15,6147.7 c -22.49,-14.8 -52.83,-8.6 -67.64,13.9 -14.76,22.5 -8.68,52.8 13.97,67.7 22.49,14.8 52.82,8.5 67.62,-14 10.71,-16.2 10.73,-37.3 0.06,-53.6 -1.16,-1.4 -4.94,-8 -14.01,-14" style="fill:#fa7167;fill-opacity:1;fill-rule:nonzero;stroke:none" id="path796"/>
      <path d="m 1628.81,5829.6 c 41.1,-7.1 68.67,-46.2 61.57,-87.3 -7.09,-41.1 -46.18,-68.7 -87.28,-61.6 -41.11,7.1 -68.68,46.2 -61.56,87.3 7.09,41.2 46.17,68.7 87.27,61.6" style="fill:#fa7167;fill-opacity:1;fill-rule:nonzero;stroke:none" id="path798"/>
      <path d="m 1622.74,5706.2 c -34.77,6.1 -51.62,45.8 -32.57,74.9 10.69,16.3 30.01,24.8 49.21,21.4 26.52,-4.6 44.39,-29.9 39.79,-56.4 -4.6,-26.7 -29.93,-44.4 -56.43,-39.9" style="fill:#fa7167;fill-opacity:1;fill-rule:nonzero;stroke:none" id="path800"/>
      <path d="m 2164.53,5773.4 92.19,396 -13.89,3.2 -96.06,-412.6 -48.86,420.9 -14.16,-1.7 46.89,-403.9 -183.91,362.6 -12.72,-6.4 191.62,-377.9 -307.8,291 -9.78,-10.3 295.42,-279.3 -373.86,159.5 -5.6,-13.1 389.54,-166.2 -422.75,24.8 -0.84,-14.2 405.7,-23.9 -388.85,-118.2 4.15,-13.6 405.2,123.1 -339.82,-252.8 8.49,-11.4 326.12,242.6 -221.94,-340.6 11.94,-7.8 499.05,761.9 -11.91,7.9 -223.56,-339.6" style="fill:#fa7167;fill-opacity:1;fill-rule:nonzero;stroke:none" id="path802"/>
      <path d="m 3728.12,4730.7 -33.44,-51.1 -1596.34,1046.3 33.46,51.1 1596.32,-1046.3" style="fill:#fa7167;fill-opacity:1;fill-rule:nonzero;stroke:none" id="path804"/>
      <path d="m 2962.17,8183.1 c -41.15,-57.4 -28.01,-137.3 29.37,-178.4 57.37,-41.2 137.24,-28.1 178.4,29.3 41.15,57.4 28.01,137.3 -29.36,178.5 -57.38,41.2 -137.25,28 -178.41,-29.4" style="fill:#fa7167;fill-opacity:1;fill-rule:nonzero;stroke:none" id="path806"/>
      <path d="m 3087.37,8016.5 c -77.08,-40.6 -156.37,50.8 -105.8,121.4 26.3,36.7 77.67,46 115.34,19 50.22,-36 44.06,-112.1 -9.54,-140.4" style="fill:#fa7167;fill-opacity:1;fill-rule:nonzero;stroke:none" id="path808"/>
      <path d="m 2308.09,8324.9 c 13.72,-69.3 -31.31,-136.6 -100.57,-150.3 -69.26,-13.8 -136.52,31.3 -150.25,100.6 -13.73,69.3 31.3,136.6 100.56,150.3 69.26,13.7 136.54,-31.3 150.26,-100.6" style="fill:#fa7167;fill-opacity:1;fill-rule:nonzero;stroke:none" id="path810"/>
      <path d="m 2206.66,8194.5 c -44.71,-8.8 -88.28,20.4 -97.13,65.1 -7.07,35.6 10.4,72.3 42.47,89.2 7.03,3.7 14.62,6.4 22.53,8 21.67,4.3 43.69,-0.1 62.05,-12.4 61.16,-41 41.62,-135.7 -29.92,-149.9" style="fill:#fa7167;fill-opacity:1;fill-rule:nonzero;stroke:none" id="path812"/>
      <path d="m 2907.69,8217.5 c -34.02,-61.9 -111.75,-84.5 -173.63,-50.5 -61.88,34 -84.47,111.8 -50.46,173.7 34.01,61.9 111.73,84.5 173.62,50.5 61.87,-34 84.47,-111.8 50.47,-173.7" style="fill:#fa7167;fill-opacity:1;fill-rule:nonzero;stroke:none" id="path814"/>
      <path d="m 2746.23,8182.9 c -57.87,31.8 -56.4,115.2 1.15,145.6 73.19,38.5 149.94,-42.3 111.11,-113 -21.91,-39.9 -72.05,-54.7 -112.26,-32.6" style="fill:#fa7167;fill-opacity:1;fill-rule:nonzero;stroke:none" id="path816"/>
      <path d="m 3298.02,7749.6 c -65.84,-25.5 -139.9,7.2 -165.45,73 -25.55,65.9 7.12,140 72.94,165.5 65.82,25.6 139.89,-7.1 165.44,-72.9 25.54,-65.9 -7.11,-140 -72.93,-165.6" style="fill:#fa7167;fill-opacity:1;fill-rule:nonzero;stroke:none" id="path818"/>
      <path d="m 3259.04,7779.7 c -42.5,-16.4 -90.48,4.7 -106.96,47.2 -16.41,42.3 4.11,90.3 47.14,107 42.49,16.5 90.48,-4.6 106.97,-47.1 16.4,-42.3 -4.11,-90.3 -47.15,-107.1" style="fill:#fa7167;fill-opacity:1;fill-rule:nonzero;stroke:none" id="path820"/>
      <path d="m 1737.37,6927 c 58.29,39.9 73.24,119.5 33.39,177.8 -39.85,58.3 -119.39,73.2 -177.68,33.4 -58.29,-39.9 -73.26,-119.5 -33.4,-177.8 39.84,-58.3 119.4,-73.3 177.69,-33.4" style="fill:#fa7167;fill-opacity:1;fill-rule:nonzero;stroke:none" id="path822"/>
      <path d="m 1726.34,6971.2 c -37.1,-19.6 -82.94,-8.2 -106.65,26.5 -27.7,40.6 -14.21,96.7 29.84,120 37.07,19.5 82.91,8.1 106.63,-26.6 27.86,-40.8 14.13,-96.7 -29.82,-119.9" style="fill:#fa7167;fill-opacity:1;fill-rule:nonzero;stroke:none" id="path824"/>
      <path d="m 1572.37,7513.6 c 70.27,-6.9 132.86,44.4 139.81,114.8 6.93,70.2 -44.41,132.9 -114.67,139.8 -70.27,7 -132.86,-44.4 -139.8,-114.7 -6.94,-70.3 44.41,-132.9 114.66,-139.9" style="fill:#fa7167;fill-opacity:1;fill-rule:nonzero;stroke:none" id="path826"/>
      <path d="m 1648.39,7562.1 c -57.69,-30.4 -127.21,15.7 -120.7,81.4 4.49,45.5 44.93,78.7 90.39,74.2 81.28,-8.1 102.67,-117.4 30.32,-155.6 h -0.01" style="fill:#fa7167;fill-opacity:1;fill-rule:nonzero;stroke:none" id="path828"/>
      <path d="m 1822.87,8069.1 c 49.37,-50.5 130.31,-51.4 180.79,-2 50.48,49.4 51.39,130.4 2.01,180.9 -49.36,50.5 -130.3,51.4 -180.79,2 -50.48,-49.4 -51.37,-130.4 -2.01,-180.9" style="fill:#fa7167;fill-opacity:1;fill-rule:nonzero;stroke:none" id="path830"/>
      <path d="m 1847.21,8139.1 c 0.24,22.1 9.07,42.8 24.85,58.3 52.58,51.4 141.27,13.2 140.46,-60.1 -0.24,-22.1 -9.08,-42.7 -24.86,-58.2 -52.43,-51.2 -141.27,-13.4 -140.45,60" style="fill:#fa7167;fill-opacity:1;fill-rule:nonzero;stroke:none" id="path832"/>
      <path d="m 1569.89,7449.2 c 70.59,1.5 129.03,-54.5 130.54,-125.1 1.5,-70.7 -54.51,-129.1 -125.11,-130.6 -70.58,-1.5 -129.03,54.5 -130.53,125.1 -1.5,70.7 54.52,129.1 125.1,130.6" style="fill:#fa7167;fill-opacity:1;fill-rule:nonzero;stroke:none" id="path834"/>
      <path d="m 1540.77,7265.2 c -52.78,50.6 -18.24,140.9 55.43,142.4 45.58,1 83.43,-35.3 84.41,-80.9 1.57,-73.9 -87.14,-112 -139.84,-61.5" style="fill:#fa7167;fill-opacity:1;fill-rule:nonzero;stroke:none" id="path836"/>
      <path d="m 2371.64,8333.6 c 5.38,-70.4 66.81,-123.2 137.22,-117.8 70.39,5.4 123.12,66.8 117.74,137.3 -5.38,70.4 -66.8,123.1 -137.21,117.8 -70.39,-5.4 -123.12,-66.9 -117.75,-137.3" style="fill:#fa7167;fill-opacity:1;fill-rule:nonzero;stroke:none" id="path838"/>
      <path d="m 2504.3,8235.2 c -45.45,-3.4 -85.25,30.8 -88.71,76.2 -3.46,45.4 30.38,85.3 76.13,88.8 45.43,3.4 85.23,-30.7 88.7,-76.2 2.51,-32.9 -14.73,-64.1 -43.91,-79.5 -2.85,-1.1 -13.87,-7.8 -32.21,-9.3" style="fill:#fa7167;fill-opacity:1;fill-rule:nonzero;stroke:none" id="path840"/>
      <path d="m 1779.59,8021.4 c 55.06,-44.2 63.82,-124.8 19.6,-179.8 -44.23,-55.1 -124.7,-63.9 -179.74,-19.6 -55.04,44.2 -63.82,124.7 -19.6,179.8 44.23,55.1 124.7,63.8 179.74,19.6" style="fill:#fa7167;fill-opacity:1;fill-rule:nonzero;stroke:none" id="path842"/>
      <path d="m 1669.48,7843.7 c -46.56,37.4 -38.92,110.1 13.17,137.6 29.18,15.4 64.65,12 90.37,-8.7 35.53,-28.6 41.22,-80.7 12.66,-116.3 -28.72,-35.7 -80.73,-41.1 -116.2,-12.6" style="fill:#fa7167;fill-opacity:1;fill-rule:nonzero;stroke:none" id="path844"/>
      <path d="m 2526.82,7498.6 461.11,510.7 -17.92,16.2 -480.5,-532.2 272.64,663.3 -22.32,9.2 -261.66,-636.6 24.92,687.8 -24.13,0.9 -25.95,-716.7 -217.27,683.5 -23,-7.4 208.54,-655.9 -422.85,543 -19.04,-14.9 440.61,-565.7 -605.68,383.6 -12.91,-20.3 581.22,-368.2 -672.7,144 -5.05,-23.6 700.99,-150.1 -710.46,-95.6 3.21,-23.9 681.79,91.7 -607.85,-322.3 11.3,-21.3 1363.53,718.8 -11.19,21.4 -609.38,-319.4" style="fill:#fa7167;fill-opacity:1;fill-rule:nonzero;stroke:none" id="path846"/>
      <path d="m 3987.47,4671.6 -91.39,-48.2 -1506.21,2859.1 91.4,48.2 1506.2,-2859.1" style="fill:#fa7167;fill-opacity:1;fill-rule:nonzero;stroke:none" id="path848"/>
      <path d="m 3762.04,4362.9 c 0,0 1203.98,894.1 1368.97,1279.4 164.99,385.4 -175.21,341.9 -175.21,341.9 0,0 486.15,689.1 357.12,916.9 -129.03,227.7 -397.51,-63.1 -397.51,-63.1 0,0 225.53,932.3 29.43,984.1 -365.23,96.6 -664.96,-906.8 -664.96,-906.8 0,0 26.9,416.6 -201.72,360.5 -344.77,-84.6 -162.39,-981.5 -162.39,-981.5 0,0 -109.9,159.1 -298.98,7.8 -339.24,-271.5 145.25,-1939.2 145.25,-1939.2" style="fill:#4951ec;fill-opacity:1;fill-rule:nonzero;stroke:none" id="path850"/>
      <path d="m 3565.79,6278.9 c 189.08,151.3 349.98,15.4 349.98,15.4 0,0 -182.38,896.9 162.39,981.5 228.62,56.1 208,-338.4 208,-338.4 0,0 293.45,981.3 658.68,884.7 L 3753.07,4365.7 c -53.28,215.9 -504.16,1659.6 -187.28,1913.2" style="fill:#0b0754;fill-opacity:1;fill-rule:nonzero;stroke:none" id="path852"/>
      <path d="m 3763.66,4394 c 0,0 820.81,-16 1260.43,101.7 97.38,26.1 181.85,74.7 228.02,113.5 254.66,214 -57.71,230.6 -57.71,230.6 0,0 707.07,379.8 698.47,588.6 -8.61,208.8 -285.26,214 -285.26,214 0,0 388.27,451.6 237.71,633.9 -191.66,232 -673.52,-221.9 -673.52,-221.9 0,0 53.99,168.1 -126.79,211.3 -272.63,65.2 -551.06,-898.9 -551.06,-898.9 0,0 35.76,393.6 -151.52,354.8 C 4006.4,5652 3763.66,4394 3763.66,4394" style="fill:#0b0754;fill-opacity:1;fill-rule:nonzero;stroke:none" id="path854"/>
      <path d="m 3698.64,4316 c 0,0 -1095.1,935 -1228.71,1311.6 -133.61,376.7 187.41,314.7 187.41,314.7 0,0 -420.76,685.1 -284.2,894 136.58,208.8 374.39,-84.2 374.39,-84.2 0,0 -158.07,900.7 31.65,938.1 353.36,69.8 577.7,-903 577.7,-903 0,0 -0.33,398 213.78,330.7 322.9,-101.4 95.01,-943.7 95.01,-943.7 0,0 119.19,314.9 289.91,159.5 C 4261.89,6054.8 3698.64,4316 3698.64,4316" style="fill:#4951ec;fill-opacity:1;fill-rule:nonzero;stroke:none" id="path856"/>
      <path d="m 4008.5,6387.1 c -197.92,118.8 -296.21,-39.5 -296.21,-39.5 0,0 195.04,678 -127.87,779.5 -214.11,67.2 -234.74,-277 -234.74,-277 0,0 -217.03,909.9 -570.39,840.1 l 942.22,-3463.6 c 63.79,202.1 522.75,2019 286.99,2160.5" style="fill:#7c9af2;fill-opacity:1;fill-rule:nonzero;stroke:none" id="path858"/>
      <path d="m 3602.14,4459.5 c 0,0 -720.87,-10.8 -1158.69,7.2 -176.34,7.2 -300.65,13 -322.88,35.5 -95.87,96.8 150.3,174.3 150.3,174.3 0,0 -395.79,-42.8 -452.85,48.3 -57.05,91.1 95.83,127 95.83,127 0,0 -372.78,108.1 -354.98,187.4 33.14,147.7 444.86,51.4 444.86,51.4 0,0 -86.51,113.6 -24.36,182.7 93.72,104.1 413.15,-137.8 413.15,-137.8 0,0 -110.33,168 -47.17,239.9 249.17,283.5 1256.79,-915.9 1256.79,-915.9" style="fill:#0b0754;fill-opacity:1;fill-rule:nonzero;stroke:none" id="path860"/>
      <path d="m 2733.74,3104.8 h 2002.13 c 255,233 410.36,553.9 404.69,906 -2.86,177.7 -39.44,332.7 -115.73,484.9 l -2581.36,-29 c -71.36,-154.6 -109.64,-324.5 -106.77,-502.3 5.41,-335.3 155.95,-637.7 397.04,-859.6" style="fill:#fa7167;fill-opacity:1;fill-rule:nonzero;stroke:none" id="path862"/>
      <path d="m 12481.1,7453.9 c 0,0 -1409.7,-241.3 -1677.2,-466 -267.4,-224.8 845.8,-822.5 845.8,-822.5 0,0 559.9,378.6 803.5,423.7 241.8,44.7 699.1,84 1116.3,227.8 417.2,143.9 12.4,701.1 -85.5,773.7 -97.8,72.7 -1002.9,-136.7 -1002.9,-136.7" style="fill:#e8605d;fill-opacity:1;fill-rule:nonzero;stroke:none" id="path864"/>
      <path d="m 11475,10671.6 c -33,-22 -87.7,-87.4 -144.8,-279.6 -107,-360.8 -241.9,-1160.3 -241.9,-1160.3 l 776.9,-144.4 39.8,172.1 -132.5,1393.9 c 0,0 -277.7,31.5 -297.5,18.3" style="fill:#92b5f9;fill-opacity:1;fill-rule:nonzero;stroke:none" id="path866"/>
      <path d="m 12072,10842.9 c -175,-33.7 -409.8,-64.1 -597.7,-170.9 l 399.7,-2457.2 -58,-869.8 1837.1,169.6 c 0,0 -260.4,1840.6 -233.4,2138.1 26.9,297.6 63.7,1168.8 63.7,1168.8 0,0 -306.5,85.2 -773.4,84.2 -190.8,-0.4 -451.2,-26.7 -638,-62.8" style="fill:#bed1f9;fill-opacity:1;fill-rule:nonzero;stroke:none" id="path868"/>
      <path d="m 11807.5,3768.8 c 0,0 47.5,-163 -46.2,-268 -93.8,-105 -475.8,-201.7 -526.9,-258.6 -51.1,-56.9 -48.5,-106.3 -48.5,-106.3 l 1050.7,-21.4 11.2,345.7 -44.1,229.8 -396.2,78.8" style="fill:#fb9390;fill-opacity:1;fill-rule:nonzero;stroke:none" id="path870"/>
      <path d="m 11693.8,3448.9 c 0,0 271.5,-115.6 405.2,-53.6 133.7,61.9 130.1,80 167.9,55 37.7,-25 16.4,-359.6 16.4,-359.6 l -1182,16.2 c 0,0 -6.7,149.8 88.2,200.9 95,51.2 504.3,141.1 504.3,141.1" style="fill:#0b0754;fill-opacity:1;fill-rule:nonzero;stroke:none" id="path872"/>
      <path d="m 11529.5,6799.3 c -94.8,165.1 -366,268 -366,268 0,0 -140.9,69.9 -359.6,-79.4 -218.7,-149.3 -171.2,-599.6 -48.4,-914.4 122.9,-314.7 914.6,-2160.1 956.6,-2418.7 l 520.5,34.4 c 0,0 -205.6,1491.7 -255.7,1852.3 -48.2,346.9 -283.2,972.1 -447.4,1257.8" style="fill:#e8605d;fill-opacity:1;fill-rule:nonzero;stroke:none" id="path874"/>
      <path d="m 12680.3,7192 -391,-938.5 933.8,-137.7 464.2,778.2 -1007,298" style="fill:#e8605d;fill-opacity:1;fill-rule:nonzero;stroke:none" id="path876"/>
      <path d="m 11117.7,4212.8 c 0,0 -231.7,-429.5 -357,-522 -125.2,-92.6 -140.2,-335.3 -148.9,-365.8 -8.6,-30.5 39.1,-114.5 284.4,-191 245.2,-76.5 346.6,-42.2 365,52.5 11.5,59.1 -14.2,145.8 -28.3,223.4 -8.4,46.6 -12.6,89.9 -2.2,122 28,85.7 235.5,348 235.5,348 l -348.5,332.9" style="fill:#fb9390;fill-opacity:1;fill-rule:nonzero;stroke:none" id="path878"/>
      <path d="m 10927.6,3077.1 c 245.2,-76.5 315.2,14.7 333.6,109.4 11.5,59.2 -14.3,146.1 -28.3,223.8 -28.1,-7.4 -88.7,-15.9 -203.4,-1.7 -119.2,14.8 -241,156.5 -316.9,234.7 -85.2,-107 -150.2,-278.9 -157.3,-303.7 -8.6,-30.5 127,-186 372.3,-262.5" style="fill:#0b0754;fill-opacity:1;fill-rule:nonzero;stroke:none" id="path880"/>
      <path d="M 12075.9,5975.6 C 11860.7,5637.7 10844.7,3920.1 10844.7,3920.1 l 530.3,-310.4 c 0,0 1711.5,2073.1 1832.7,2450.8 121.1,377.8 -127,538.6 -280.4,602.4 -252.6,104.9 -350.1,99.8 -851.4,-687.3" style="fill:#fa7167;fill-opacity:1;fill-rule:nonzero;stroke:none" id="path882"/>
      <path d="m 15748.1,6944.1 -157.4,-3839.6 130.5,0.1 426.3,3883.9 -399.4,-44.4" style="fill:#184655;fill-opacity:1;fill-rule:nonzero;stroke:none" id="path884"/>
      <path d="m 13614,7709.6 95.3,0.5 -7.2,107.9 -88.7,-0.5 c -41.9,-0.2 -76.2,48 -76.6,107.6 l -0.6,108 c -0.3,59.5 33.5,108.1 75.4,108.4 l 114,0.6 -0.6,108 -114,-0.7 c -83.8,-0.4 -151.5,-97.7 -150.8,-216.8 l 0.6,-107.9 c 0.7,-119.1 69.4,-215.6 153.2,-215.1" style="fill:#dde8fe;fill-opacity:1;fill-rule:nonzero;stroke:none" id="path886"/>
      <path d="m 14284.7,8247.7 2.7,-494.3 c 0.7,-113.6 -90.9,-206.2 -204.4,-206.8 l -176.2,-1 c -113.6,-0.6 -206.2,90.9 -206.8,204.5 l -3.1,557 587.4,3.3 0.4,-62.7" style="fill:#dde8fe;fill-opacity:1;fill-rule:nonzero;stroke:none" id="path888"/>
      <path d="M 17139,6866.6 H 7821.27 v 61.1 c 0,377.7 306.12,683.8 683.74,683.8 h 7950.29 c 377.6,0 683.7,-306.1 683.7,-683.8 v -61.1" style="fill:#0b0754;fill-opacity:1;fill-rule:nonzero;stroke:none" id="path890"/>
      <path d="m 8725.82,6973.3 181.67,-3868.6 h -155 l -505.62,3913.4 478.95,-44.8" style="fill:#0b0754;fill-opacity:1;fill-rule:nonzero;stroke:none" id="path892"/>
      <path d="m 16372.5,6973.3 -151.5,-3868.6 166.5,0.1 384.3,3913.3 -399.3,-44.8" style="fill:#184655;fill-opacity:1;fill-rule:nonzero;stroke:none" id="path894"/>
      <path d="m 19560.9,6864.7 c -40,11.9 -82.1,-10.9 -94,-50.9 -11.9,-40 10.9,-82 50.9,-93.9 40,-11.9 82.1,10.9 94,50.9 11.9,40 -10.9,82 -50.9,93.9" style="fill:#fa7167;fill-opacity:1;fill-rule:nonzero;stroke:none" id="path896"/>
      <path d="m 19492.1,6762.6 c -37.6,35.2 -1.9,97.1 47.3,82.5 25.5,-7.6 40.7,-34.4 32.9,-60.7 -10.4,-35 -54.1,-46.2 -80.2,-21.8" style="fill:#fa7167;fill-opacity:1;fill-rule:nonzero;stroke:none" id="path898"/>
      <path d="m 19513.5,7257.2 c -36,-21 -82.3,-8.9 -103.4,27.1 -21,36 -8.9,82.3 27.1,103.3 36,21.1 82.3,9 103.4,-27 21,-36.1 8.9,-82.3 -27.1,-103.4" style="fill:#fa7167;fill-opacity:1;fill-rule:nonzero;stroke:none" id="path900"/>
      <path d="m 19421.1,7288.7 c -13.6,23.2 -5.7,53.2 17.5,66.8 18.6,10.8 42.4,8.1 58.1,-6.5 3.4,-3.2 6.3,-6.9 8.7,-11.1 6.7,-11.2 8.4,-24.4 5.1,-37 -11,-42 -67.7,-49.4 -89.4,-12.2" style="fill:#fa7167;fill-opacity:1;fill-rule:nonzero;stroke:none" id="path902"/>
      <path d="m 19569.5,6901.7 c -41.1,7.1 -68.8,46.1 -61.8,87.2 7.1,41.1 46.1,68.8 87.3,61.7 41.1,-7 68.8,-46 61.7,-87.1 -7,-41.1 -46.1,-68.8 -87.2,-61.8" style="fill:#fa7167;fill-opacity:1;fill-rule:nonzero;stroke:none" id="path904"/>
      <path d="m 19519,6985.2 c 6.5,38.4 53.4,53.7 81.4,27.5 35.7,-33.4 5.4,-91.9 -41.5,-83.9 -26.5,4.5 -44.5,29.7 -39.9,56.4" style="fill:#fa7167;fill-opacity:1;fill-rule:nonzero;stroke:none" id="path906"/>
      <path d="m 19383.8,6593.5 c -27,31.8 -23,79.5 8.8,106.4 31.8,27 79.5,23.1 106.5,-8.7 27,-31.8 23.1,-79.5 -8.7,-106.5 -31.9,-26.9 -79.5,-23 -106.6,8.8" style="fill:#fa7167;fill-opacity:1;fill-rule:nonzero;stroke:none" id="path908"/>
      <path d="m 19393.1,6621 c -17.4,20.6 -14.9,51.5 5.7,68.9 20.4,17.3 51.1,15.1 68.8,-5.7 17.4,-20.5 14.9,-51.4 -5.6,-68.8 -20.5,-17.3 -51.2,-15.2 -68.9,5.6" style="fill:#fa7167;fill-opacity:1;fill-rule:nonzero;stroke:none" id="path910"/>
      <path d="m 18622.8,7305.8 c 33.5,-24.8 80.8,-17.8 105.7,15.7 24.8,33.5 17.8,80.8 -15.8,105.7 -33.5,24.8 -80.8,17.8 -105.7,-15.7 -24.8,-33.5 -17.8,-80.8 15.8,-105.7" style="fill:#fa7167;fill-opacity:1;fill-rule:nonzero;stroke:none" id="path912"/>
      <path d="m 18645.3,7320.5 c -18.1,17 -20.6,44.8 -5.8,64.7 17.2,23.3 51.2,26.6 72.7,6.5 18.1,-16.9 20.6,-44.7 5.8,-64.7 -17.4,-23.4 -51.3,-26.5 -72.7,-6.5" style="fill:#fa7167;fill-opacity:1;fill-rule:nonzero;stroke:none" id="path914"/>
      <path d="m 18918.3,7511.2 c 9.7,-40.5 50.5,-65.5 91.1,-55.8 40.6,9.7 65.6,50.4 55.9,91 -9.7,40.6 -50.5,65.6 -91.1,55.9 -40.6,-9.7 -65.6,-50.5 -55.9,-91.1" style="fill:#fa7167;fill-opacity:1;fill-rule:nonzero;stroke:none" id="path916"/>
      <path d="m 18960.1,7478.2 c -28.1,26.3 -15.9,74 22.1,83.1 26.2,6.3 52.6,-9.9 58.8,-36.2 11.3,-46.9 -45.6,-79.9 -80.9,-46.9" style="fill:#fa7167;fill-opacity:1;fill-rule:nonzero;stroke:none" id="path918"/>
      <path d="m 19276.9,7478.7 c -18.7,-37.3 -3.5,-82.7 33.8,-101.3 37.3,-18.7 82.7,-3.5 101.4,33.8 18.6,37.3 3.4,82.7 -33.9,101.3 -37.3,18.6 -82.7,3.5 -101.3,-33.8" style="fill:#fa7167;fill-opacity:1;fill-rule:nonzero;stroke:none" id="path920"/>
      <path d="m 19320.7,7478.6 c 12.3,4.2 25.6,3.2 37.3,-2.6 38.8,-19.4 34.7,-76.3 -6.4,-90 -12.4,-4.1 -25.6,-3.2 -37.3,2.6 -38.8,19.4 -34.8,76.3 6.4,90" style="fill:#fa7167;fill-opacity:1;fill-rule:nonzero;stroke:none" id="path922"/>
      <path d="m 18881.9,7500.2 c 14.5,-39.1 -5.5,-82.6 -44.6,-97.1 -39.2,-14.4 -82.6,5.5 -97.1,44.7 -14.5,39.1 5.5,82.5 44.6,97 39.1,14.5 82.6,-5.5 97.1,-44.6" style="fill:#fa7167;fill-opacity:1;fill-rule:nonzero;stroke:none" id="path924"/>
      <path d="m 18773.6,7480.9 c 18,39.3 75,37.4 90.2,-3.4 9.3,-25.3 -3.6,-53.4 -28.9,-62.8 -40.9,-15.1 -79.4,27 -61.3,66.2" style="fill:#fa7167;fill-opacity:1;fill-rule:nonzero;stroke:none" id="path926"/>
      <path d="m 19530.6,7223.4 c -38.2,-16.6 -55.8,-61.1 -39.2,-99.3 16.6,-38.3 61.1,-55.9 99.4,-39.3 38.3,16.7 55.9,61.1 39.2,99.4 -16.6,38.3 -61.1,55.8 -99.4,39.2" style="fill:#fa7167;fill-opacity:1;fill-rule:nonzero;stroke:none" id="path928"/>
      <path d="m 19501.4,7130.4 c -10.7,24.7 0.7,53.5 25.4,64.2 24.6,10.7 53.4,-0.5 64.2,-25.4 10.7,-24.7 -0.6,-53.5 -25.3,-64.2 -17.9,-7.7 -38.7,-4.1 -52.9,9.2 -1.2,1.4 -7.1,6.2 -11.4,16.2" style="fill:#fa7167;fill-opacity:1;fill-rule:nonzero;stroke:none" id="path930"/>
      <path d="m 19241.8,7493.6 c -14,-39.2 -57.3,-59.7 -96.6,-45.6 -39.2,14 -59.7,57.3 -45.7,96.5 14.1,39.3 57.4,59.8 96.6,45.7 39.3,-14.1 59.8,-57.3 45.7,-96.6" style="fill:#fa7167;fill-opacity:1;fill-rule:nonzero;stroke:none" id="path932"/>
      <path d="m 19121.3,7520.8 c 11.9,33.2 54,43 79.4,19.2 14.2,-13.3 19.2,-33.8 12.6,-52.1 -9,-25.4 -37.1,-38.6 -62.4,-29.5 -25.5,9.1 -38.6,37.1 -29.6,62.4" style="fill:#fa7167;fill-opacity:1;fill-rule:nonzero;stroke:none" id="path934"/>
      <path d="m 19094.5,6975.5 374.3,-158.8 5.6,13.2 -390,165.4 423,-24.1 0.8,14.3 -406,23.1 388.8,118.9 -4.2,13.7 -405.1,-124 339.5,253.3 -8.5,11.4 -325.9,-243.1 221.3,341 -11.9,7.7 -230.6,-355.2 97,412.2 -13.8,3.3 -93.2,-395.6 -49.7,403.4 -14.2,-1.8 51.9,-420.3 -190.8,378.2 -12.8,-6.5 183.1,-362.9 -297.4,277.1 -9.8,-10.4 665,-622.4 9.8,10.4 -296.2,278.5" style="fill:#fa7167;fill-opacity:1;fill-rule:nonzero;stroke:none" id="path936"/>
      <path d="m 17799,5614.1 -44.6,41.6 1304.7,1393.2 44.6,-41.7 L 17799,5614.1" style="fill:#fa7167;fill-opacity:1;fill-rule:nonzero;stroke:none" id="path938"/>
      <path d="m 19698.8,8727.6 c -70.5,-3.1 -125.3,-62.8 -122.3,-133.3 3.1,-70.6 62.7,-125.3 133.3,-122.2 70.5,3 125.3,62.7 122.3,133.3 -3.1,70.5 -62.7,125.2 -133.3,122.2" style="fill:#fa7167;fill-opacity:1;fill-rule:nonzero;stroke:none" id="path940"/>
      <path d="m 19645,8526.2 c -79.5,35.6 -56.5,154.4 30.2,158.2 45.1,1.9 84.2,-32.7 86.1,-79 2.7,-61.8 -60.9,-103.9 -116.3,-79.2" style="fill:#fa7167;fill-opacity:1;fill-rule:nonzero;stroke:none" id="path942"/>
      <path d="m 19406.6,9329.7 c -46.1,-53.6 -126.8,-59.7 -180.4,-13.7 -53.6,46 -59.6,126.7 -13.6,180.3 46.1,53.6 126.8,59.7 180.3,13.7 53.6,-46 59.7,-126.8 13.7,-180.3" style="fill:#fa7167;fill-opacity:1;fill-rule:nonzero;stroke:none" id="path944"/>
      <path d="m 19241.4,9329 c -34.6,29.7 -38.5,82 -8.8,116.6 23.7,27.5 63.3,36.4 96.4,21.6 7.3,-3.2 14.1,-7.5 20.2,-12.8 16.8,-14.4 26.9,-34.4 28.5,-56.5 5.6,-73.4 -81,-116.5 -136.3,-68.9" style="fill:#fa7167;fill-opacity:1;fill-rule:nonzero;stroke:none" id="path946"/>
      <path d="m 19692.2,8791.6 c -69.7,-11.4 -135.5,35.8 -146.9,105.5 -11.4,69.7 35.8,135.4 105.5,146.9 69.7,11.5 135.5,-35.7 146.9,-105.4 11.4,-69.7 -35.8,-135.5 -105.5,-147" style="fill:#fa7167;fill-opacity:1;fill-rule:nonzero;stroke:none" id="path948"/>
      <path d="m 19565.3,8897.3 c -10.7,65.1 55.8,115.5 115.2,88.9 75.6,-33.7 59.3,-144 -20.2,-157.1 -44.9,-7.4 -87.6,22.9 -95,68.2" style="fill:#fa7167;fill-opacity:1;fill-rule:nonzero;stroke:none" id="path950"/>
      <path d="m 19565.1,8195.7 c -60.7,36.1 -80.8,114.5 -44.7,175.3 36,60.7 114.5,80.8 175.2,44.8 60.7,-36.1 80.8,-114.5 44.7,-175.2 -36,-60.8 -114.5,-80.8 -175.2,-44.9" style="fill:#fa7167;fill-opacity:1;fill-rule:nonzero;stroke:none" id="path952"/>
      <path d="m 19564.7,8245 c -39.2,23.3 -52.2,74 -28.9,113.3 23.1,39 73.5,52.4 113.3,28.9 39.2,-23.2 52.2,-74 28.9,-113.2 -23.1,-39.1 -73.5,-52.5 -113.3,-29" style="fill:#fa7167;fill-opacity:1;fill-rule:nonzero;stroke:none" id="path954"/>
      <path d="m 17954.5,8915.7 c 67.3,-21.3 139.2,16.1 160.4,83.5 21.4,67.3 -16,139.1 -83.4,160.4 -67.3,21.2 -139.2,-16.1 -160.5,-83.5 -21.2,-67.4 16.1,-139.2 83.5,-160.4" style="fill:#fa7167;fill-opacity:1;fill-rule:nonzero;stroke:none" id="path956"/>
      <path d="m 17982.4,8951.6 c -38.2,17.2 -57.5,60.3 -44.9,100.3 14.8,46.8 67.3,70.9 112.8,50.6 38.2,-17.1 57.6,-60.2 44.9,-100.3 -14.9,-47.1 -67.4,-70.8 -112.8,-50.6" style="fill:#fa7167;fill-opacity:1;fill-rule:nonzero;stroke:none" id="path958"/>
      <path d="m 18314.2,9407.6 c 37.9,-59.5 116.9,-77.1 176.5,-39.1 59.6,37.9 77.1,117 39.2,176.5 -37.9,59.6 -116.9,77.1 -176.5,39.2 -59.6,-38 -77.2,-117 -39.2,-176.6" style="fill:#fa7167;fill-opacity:1;fill-rule:nonzero;stroke:none" id="path960"/>
      <path d="m 18399.2,9377.8 c -59.5,26.6 -66.2,109.7 -10.5,145.2 38.5,24.5 89.7,13.2 114.2,-25.4 43.8,-68.9 -29,-153.2 -103.7,-119.8" style="fill:#fa7167;fill-opacity:1;fill-rule:nonzero;stroke:none" id="path962"/>
      <path d="m 18905.8,9553.5 c -9.3,-70 40,-134.3 110,-143.5 70,-9.2 134.3,40.1 143.6,110.1 9.2,70 -40,134.2 -110,143.5 -70.1,9.2 -134.3,-40.1 -143.6,-110.1" style="fill:#fa7167;fill-opacity:1;fill-rule:nonzero;stroke:none" id="path964"/>
      <path d="m 18975.9,9577.6 c 17.5,13.4 39.3,19.2 61.1,16.3 72.9,-9.6 97.7,-102.9 39.5,-147.5 -17.5,-13.5 -39.3,-19.3 -61.1,-16.4 -72.7,9.6 -97.8,102.9 -39.5,147.6" style="fill:#fa7167;fill-opacity:1;fill-rule:nonzero;stroke:none" id="path966"/>
      <path d="m 18261.9,9369.8 c 44.8,-54.6 36.8,-135.1 -17.8,-179.9 -54.7,-44.8 -135.2,-36.8 -180,17.8 -44.8,54.6 -36.7,135.1 17.9,179.9 54.6,44.8 135.2,36.8 179.9,-17.8" style="fill:#fa7167;fill-opacity:1;fill-rule:nonzero;stroke:none" id="path968"/>
      <path d="m 18099.2,9279.1 c 7.3,72.8 99.5,101.3 146.3,44.4 28.8,-35.3 23.7,-87.5 -11.6,-116.4 -57.1,-46.8 -141.9,-0.6 -134.7,72" style="fill:#fa7167;fill-opacity:1;fill-rule:nonzero;stroke:none" id="path970"/>
      <path d="m 19452.6,9285 c -52.1,-47.7 -55.6,-128.6 -8,-180.6 47.7,-52.1 128.6,-55.7 180.7,-7.9 52.1,47.7 55.7,128.5 8,180.6 -47.7,52.1 -128.6,55.6 -180.7,7.9" style="fill:#fa7167;fill-opacity:1;fill-rule:nonzero;stroke:none" id="path972"/>
      <path d="m 19457.2,9120 c -30.8,33.6 -28.5,86 5.1,116.8 33.6,30.7 85.8,28.7 116.8,-5.1 30.8,-33.6 28.5,-86.1 -5.1,-116.8 -24.4,-22.3 -59.6,-28 -89.7,-14.6 -2.6,1.6 -14.7,6.1 -27.1,19.7" style="fill:#fa7167;fill-opacity:1;fill-rule:nonzero;stroke:none" id="path974"/>
      <path d="m 18841.5,9558.1 c -0.8,-70.6 -58.7,-127.3 -129.4,-126.5 -70.6,0.8 -127.1,58.7 -126.3,129.3 0.8,70.7 58.7,127.3 129.3,126.5 70.7,-0.8 127.3,-58.7 126.4,-129.3" style="fill:#fa7167;fill-opacity:1;fill-rule:nonzero;stroke:none" id="path976"/>
      <path d="m 18633.7,9535 c 0.7,59.7 62.7,98.6 116.4,74.6 30.1,-13.5 49.4,-43.5 49,-76.5 -0.6,-45.6 -38.1,-82.2 -83.7,-81.7 -45.8,0.5 -82.2,38.1 -81.7,83.6" style="fill:#fa7167;fill-opacity:1;fill-rule:nonzero;stroke:none" id="path978"/>
      <path d="m 18891.5,8647.5 686.5,-47.5 1.6,24.1 -715.3,49.4 690.1,195 -6.5,23.3 -662.4,-187.2 556.6,405.1 -14.2,19.5 -579.9,-422 403.6,592.8 -20,13.6 -387.3,-569 166.1,667.8 -23.4,5.8 -173.1,-695.8 -72.1,713.3 -24,-2.4 69.2,-684.6 -302,618.1 -21.7,-10.6 314.7,-644.1 -513.8,500 -16.8,-17.3 493,-479.8 -628.8,279.3 -9.8,-22.1 1407.2,-629 10,22 -627.5,282.3" style="fill:#fa7167;fill-opacity:1;fill-rule:nonzero;stroke:none" id="path980"/>
      <path d="m 17569.2,5753.2 -94.4,42.1 1319.5,2950 94.4,-42.1 -1319.5,-2950" style="fill:#fa7167;fill-opacity:1;fill-rule:nonzero;stroke:none" id="path982"/>
      <path d="m 16722,4509.9 c 0,0 1339.8,995 1523.4,1423.8 183.6,428.8 -195,380.3 -195,380.3 0,0 541,766.9 397.4,1020.3 -143.6,253.4 -442.3,-70.2 -442.3,-70.2 0,0 250.9,1037.5 32.7,1095.2 -406.4,107.5 -739.9,-1009.1 -739.9,-1009.1 0,0 29.9,463.6 -224.5,401.1 -383.7,-94.1 -180.7,-1092.1 -180.7,-1092.1 0,0 -122.3,177 -332.7,8.6 -377.5,-302.1 161.6,-2157.9 161.6,-2157.9" style="fill:#4951ec;fill-opacity:1;fill-rule:nonzero;stroke:none" id="path984"/>
      <path d="m 16503.7,6642 c 210.3,168.4 389.4,17.2 389.4,17.2 0,0 -203,998 180.7,1092.1 254.4,62.5 224.5,-401.1 224.5,-401.1 0,0 333.5,1116.6 739.9,1009.1 L 16712.1,4513.1 c -59.4,240.2 -561.1,1846.8 -208.4,2128.9" style="fill:#0b0754;fill-opacity:1;fill-rule:nonzero;stroke:none" id="path986"/>
      <path d="m 16723.8,4544.5 c 0,0 928.9,-21.9 1411.1,115.7 97.1,27.8 197.8,84 245.3,123.8 283.3,238.1 -64.3,256.7 -64.3,256.7 0,0 786.8,422.6 777.2,654.9 -9.5,232.4 -317.4,238.1 -317.4,238.1 0,0 432.1,502.6 264.6,705.4 -213.3,258.2 -749.5,-246.9 -749.5,-246.9 0,0 60,187.1 -141.1,235.2 -303.4,72.5 -613.2,-1000.4 -613.2,-1000.4 0,0 39.8,438.1 -168.6,394.9 -374,-77.5 -644.1,-1477.4 -644.1,-1477.4" style="fill:#7c9af2;fill-opacity:1;fill-rule:nonzero;stroke:none" id="path988"/>
      <path d="m 16666.8,4468 c 0,0 -1218.6,1040.4 -1367.3,1459.5 -148.6,419.1 208.6,350.1 208.6,350.1 0,0 -524.8,819 -372.8,1051.4 152,232.4 415.3,-50.9 415.3,-50.9 0,0 -118.1,903 93.1,944.7 393.2,77.6 642.8,-1005 642.8,-1005 0,0 -0.4,442.9 237.9,368 359.3,-112.8 105.7,-1050 105.7,-1050 0,0 132.6,350.3 322.6,177.4 340.9,-310.3 -285.9,-2245.2 -285.9,-2245.2" style="fill:#7c9af2;fill-opacity:1;fill-rule:nonzero;stroke:none" id="path990"/>
      <path d="m 17006.2,6922 c -224.5,124.9 -296.4,-94.9 -296.4,-94.9 0,0 173.9,645.9 -185.4,758.7 -238.3,74.9 -237.9,-368 -237.9,-368 0,0 -249.6,1082.6 -642.8,1005 l 1045.2,-3865.9 c 71,224.9 644.8,2383 317.3,2565.1" style="fill:#92b5f9;fill-opacity:1;fill-rule:nonzero;stroke:none" id="path992"/>
      <path d="m 16544.1,4617.4 c 0,0 -848.5,-2.8 -1288.3,8 -112.6,2.8 -198.6,8.8 -236.5,13.2 -186.2,21.6 19.5,187.9 19.5,187.9 0,0 -383.2,-44.2 -446.7,57.1 -63.5,101.4 73.3,170.4 73.3,170.4 0,0 -265.2,133.9 -245.4,222.1 36.9,164.4 345.4,43.6 345.4,43.6 0,0 -77.2,65.5 -8,142.3 104.3,115.9 456.8,-182 456.8,-182 0,0 -148.1,285.8 -68.6,356.6 407.1,362.5 1398.5,-1019.2 1398.5,-1019.2" style="fill:#0b0754;fill-opacity:1;fill-rule:nonzero;stroke:none" id="path994"/>
      <path d="m 15578.5,3104.8 h 2225.9 c 283.8,259.2 457.9,621.5 451.6,1013.3 -3.2,197.8 -43.9,370.3 -128.8,539.6 l -2872.5,-32.2 c -79.4,-172.1 -121.9,-361.1 -118.7,-558.9 6,-373.2 174.3,-714.8 442.5,-961.8" style="fill:#fa7167;fill-opacity:1;fill-rule:nonzero;stroke:none" id="path996"/>
      <path d="m 15026.2,12335.8 c 0,0 123.8,40.6 248.7,-42.8 111.4,-74.4 126,-210.7 53.7,-309.6 -83.8,-114.6 -287.6,-180.3 -645.4,-116.8 -185.5,299.2 -191,504.7 -107.2,619.2 72.3,99 211.2,132.8 322.6,58.4 124.9,-83.4 127.6,-208.4 127.6,-208.4" style="fill:#e8605d;fill-opacity:1;fill-rule:nonzero;stroke:none" id="path998"/>
      <path d="m 15328.6,11983.4 c 72.3,98.9 57.7,235.2 -53.7,309.6 -124.9,83.4 -248.7,42.8 -248.7,42.8 0,0 -343.3,-468.1 -343,-469.2 357.8,-63.5 561.6,2.2 645.4,116.8" style="fill:#fa7167;fill-opacity:1;fill-rule:nonzero;stroke:none" id="path1000"/>
      <path d="M 13548,10752.4 C 13443.3,10966.2 12232.6,8800 12232.6,8800 c -251.3,28 -1283.3,-175.2 -1434.9,-137 -61.5,15.5 -193.5,94 -253.8,113 -61.9,19.4 -118.7,33.7 -151.4,33.5 -12,0 -362.5,-78.1 -396.55,-102.5 -42.28,-30.4 -155.07,-105.8 -148.67,-147.9 6.36,-42.1 201.72,79.6 201.72,79.6 l 89,31.4 c -120.3,-80.4 -336.61,-176.5 -320.48,-227.7 15.73,-49.9 214.18,51.1 354.68,119.1 -124.8,-76.9 -291.79,-224.1 -268.42,-255.5 21.01,-28.3 211.72,142.6 380.32,172.3 62.4,11.1 106.5,-56.7 150.2,-71.4 32.2,-10.9 81.1,-30.6 115.9,-26.8 l 232.9,5.1 c 53.4,-14.6 1006.8,-170.5 1598.9,-82.4 230.7,34.4 858.4,646.9 1140.3,1256.4 226.6,490 110.7,1019.6 25.7,1193.2" style="fill:#fb9390;fill-opacity:1;fill-rule:nonzero;stroke:none" id="path1002"/>
      <path d="m 13430.2,9242.3 c 252.7,511.7 473.1,1505 -10,1594.2 -311.8,57.6 -597.9,-467.4 -856.5,-1420.1 128.1,-64.9 668.4,-258.1 866.5,-174.1" style="fill:#92b5f9;fill-opacity:1;fill-rule:nonzero;stroke:none" id="path1004"/>
      <path d="m 12584.9,11599.4 106.9,-699.6 c 0,0 -373.3,-596.9 -606.2,-524.7 -195.4,60.6 -92.2,561.6 -92.2,561.6 0,0 37.3,138.5 61.1,292.6 16.5,106.4 26.5,220.4 13.5,301.3 -32,198.1 516.9,68.8 516.9,68.8" style="fill:#fb9390;fill-opacity:1;fill-rule:nonzero;stroke:none" id="path1006"/>
      <path d="m 12068,11530.6 c -32,198.1 516.9,68.8 516.9,68.8 l 8.9,-58 c -16.1,-38.8 -35.7,-72.1 -59.5,-97.5 -122.6,-131.1 -314.3,-209.8 -480,-215.8 16.6,106.8 26.8,221.3 13.7,302.5" style="fill:#ef7f7f;fill-opacity:1;fill-rule:nonzero;stroke:none" id="path1008"/>
      <path d="m 12675,12589.1 c 15.5,5.6 124.3,-796.8 -82.2,-1017.6 -206.6,-220.7 -608.9,-293 -753.3,-119.1 -159.6,192.3 -151.6,1054.7 169.5,1281.8 321.1,227.1 666,-145.1 666,-145.1" style="fill:#fb9390;fill-opacity:1;fill-rule:nonzero;stroke:none" id="path1010"/>
      <path d="m 12229,13087.3 c 248.2,-50.3 636.1,-264.2 794.3,-524.3 194.5,-319.9 50.9,-674.3 -175.6,-848.2 -226.3,-173.8 -223.2,-374.4 -223.2,-374.4 l -35.8,103.6 c -26.4,78.7 -37.2,162.2 -28.3,244.7 5.3,49.5 15.9,103.1 36.6,147.1 54.4,116.1 -117,193.3 -165,289.9 -37.1,74.4 -38.9,244.6 -97.2,367.5 l -69.6,93.9 c 0,0 -156.9,95.1 -317.8,89.2 -97.2,-3.6 -36.8,475.5 281.6,411" style="fill:#0b0754;fill-opacity:1;fill-rule:nonzero;stroke:none" id="path1012"/>
      <path d="m 12442.5,11982.9 c -1.6,-97.9 43.2,-178 100.1,-179 56.9,-1 104.3,77.6 106,175.5 1.6,97.9 -43.2,178 -100.1,179 -56.9,1 -104.3,-77.6 -106,-175.5" style="fill:#fb9390;fill-opacity:1;fill-rule:nonzero;stroke:none" id="path1014"/>
      <path d="m 8962.61,7928 c 0,0 263.14,436.9 333.79,396.5 70.64,-40.4 -139.83,-330.2 -139.83,-330.2 0,0 165.68,372.5 223.48,314.7 57.79,-57.8 -80.27,-327.5 -80.27,-346.8 0,-19.3 94.42,332.6 125.22,301.8 30.79,-30.8 17.67,-377.2 32.11,-391.7 14.45,-14.5 530.71,73 530.71,73 0,0 -541.91,-233.6 -658.33,-204.7 -116.42,28.9 -392.57,89 -366.88,187.4" style="fill:#ef7f7f;fill-opacity:1;fill-rule:nonzero;stroke:none" id="path1016"/>
    </g>
  </g>
</svg>